<svg xmlns="http://www.w3.org/2000/svg" xmlns:xlink="http://www.w3.org/1999/xlink" viewBox="0 0 175.8 110.4"><defs><style>.cls-1,.cls-2{fill:none;}.cls-2{stroke:#231f20;stroke-width:0.65px;}.cls-3{fill:#d6414c;}.cls-4{fill:#0a3542;}.cls-5{fill:#d59b67;}.cls-6{fill:url(#Scotch_Rule_2);}.cls-7{fill:url(#Scotch_Rule_2-3);}.cls-8{fill:#fffac0;}</style><pattern id="Scotch_Rule_2" data-name="Scotch Rule 2" width="73.1" height="72" patternTransform="translate(5020.5 134.9) scale(0.49 0.51)" patternUnits="userSpaceOnUse" viewBox="0 0 73.1 72"><rect class="cls-1" width="73.1" height="72"/><line class="cls-2" x1="12.7" y1="72" x2="12.7"/><line class="cls-2" x1="31" y1="72" x2="31"/><line class="cls-2" x1="49.3" y1="72" x2="49.3"/><line class="cls-2" x1="67.6" y1="72" x2="67.6"/><line class="cls-2" x1="5.5" y1="72" x2="5.5"/><line class="cls-2" x1="23.8" y1="72" x2="23.8"/><line class="cls-2" x1="42.1" y1="72" x2="42.1"/><line class="cls-2" x1="60.4" y1="72" x2="60.4"/></pattern><pattern id="Scotch_Rule_2-3" data-name="Scotch Rule 2" width="73.1" height="72" patternTransform="translate(5002.4 134.9) scale(0.49 0.51)" patternUnits="userSpaceOnUse" viewBox="0 0 73.1 72"><rect class="cls-1" width="73.1" height="72"/><line class="cls-2" x1="12.7" y1="72" x2="12.7"/><line class="cls-2" x1="31" y1="72" x2="31"/><line class="cls-2" x1="49.3" y1="72" x2="49.3"/><line class="cls-2" x1="67.6" y1="72" x2="67.6"/><line class="cls-2" x1="5.5" y1="72" x2="5.5"/><line class="cls-2" x1="23.8" y1="72" x2="23.8"/><line class="cls-2" x1="42.1" y1="72" x2="42.1"/><line class="cls-2" x1="60.4" y1="72" x2="60.4"/></pattern></defs><title>DropCap</title><g id="Layer_2" data-name="Layer 2"><g id="Layer_1-2" data-name="Layer 1"><polygon class="cls-3" points="0.4 6.2 38.8 6.2 54.8 34.9 70.7 6.2 109.1 6.2 54.8 104.2 0.4 6.2"/><path d="M108.6,6.4,54.8,103.7.9,6.4H38.7L54.3,34.6l.4.8.4-.8L70.8,6.4h37.8m.9-.5h-39L54.8,34.4,39,5.9H0l54.8,98.8L109.5,5.9Z"/><polygon class="cls-4" points="55.1 104.6 109.6 6.2 122.6 11.7 68.1 110.1 55.1 104.6"/><path class="cls-4" d="M109.7,6.6l12.5,5.3L68,109.8l-12.5-5.3L109.7,6.6m-.2-.6L54.8,104.7l13.4,5.7,54.8-98.8L109.5,5.9Z"/><polygon class="cls-4" points="39.6 6.5 49.2 11.6 59 26.6 54.8 33.9 39.6 6.5"/><path class="cls-4" d="M40.2,7.1,49,11.8l9.7,14.8-4,6.8L40.2,7.1M39,5.9,54.8,34.4l4.6-7.8L49.4,11.4,39,5.9Z"/><polygon class="cls-5" points="33.6 51.7 12.3 12 34.8 12 54.8 49.8 74.7 12 96.9 12 54.8 91.9 33.6 51.7"/><path d="M96.5,12.3,75.7,51.6l-21,39.7-21-39.7L12.7,12.3h22l9.6,18.2,10,19,.4.9.4-.9,10-19,9.6-18.2H96.5m.8-.5H74.5L64.8,30.3l-10,19-10-19L35,11.8H11.8L33.3,51.9,54.8,92.4,76.2,51.9,97.3,11.8Z"/><polygon class="cls-6" points="33.6 51.7 12.3 12 34.8 12 54.8 49.8 74.7 12 96.9 12 54.8 91.9 33.6 51.7"/><path d="M96.5,12.3,75.7,51.6l-21,39.7-21-39.7L12.7,12.3h22l9.6,18.2,10,19,.4.9.4-.9,10-19,9.6-18.2H96.5m.8-.5H74.5L64.8,30.3l-10,19-10-19L35,11.8H11.8L33.3,51.9,54.8,92.4,76.2,51.9,97.3,11.8Z"/><polygon class="cls-3" points="53.3 6.2 91.7 6.2 107.6 34.9 123.5 6.2 161.9 6.2 107.6 104.2 53.3 6.2"/><path d="M161.5,6.4l-53.9,97.3L53.7,6.4H91.5l15.6,28.2.4.8.4-.8L123.7,6.4h37.8m.9-.5h-39L107.6,34.4,91.8,5.9h-39l54.8,98.8L162.4,5.9Z"/><polygon class="cls-4" points="108 104.6 162.5 6.2 175.4 11.7 120.9 110.1 108 104.6"/><path class="cls-4" d="M162.6,6.6l12.5,5.3-54.3,97.9-12.5-5.3L162.6,6.6m-.2-.6-54.8,98.8,13.4,5.7,54.8-98.8L162.4,5.9Z"/><polygon class="cls-4" points="92.5 6.5 102.1 11.6 111.9 26.6 107.6 33.9 92.5 6.5"/><path class="cls-4" d="M93.1,7.1l8.8,4.6,9.7,14.8-4,6.8L93.1,7.1M91.8,5.9l15.8,28.5,4.6-7.8-9.9-15.2L91.8,5.9Z"/><polygon class="cls-5" points="86.4 51.7 65.1 12 87.7 12 107.6 49.8 127.5 12 149.8 12 107.6 91.9 86.4 51.7"/><path d="M149.3,12.3,128.6,51.6l-21,39.7-21-39.7L65.5,12.3h22l9.6,18.2,10,19,.4.9.4-.9,10-19,9.6-18.2h21.6m.8-.5H127.4l-9.8,18.5-10,19-10-19L87.8,11.8H64.7L86.2,51.9l21.4,40.5L129,51.9l21.2-40.1Z"/><polygon class="cls-7" points="86.4 51.7 65.1 12 87.7 12 107.6 49.8 127.5 12 149.8 12 107.6 91.9 86.4 51.7"/><path d="M149.3,12.3,128.6,51.6l-21,39.7-21-39.7L65.5,12.3h22l9.6,18.2,10,19,.4.9.4-.9,10-19,9.6-18.2h21.6m.8-.5H127.4l-9.8,18.5-10,19-10-19L87.8,11.8H64.7L86.2,51.9l21.4,40.5L129,51.9l21.2-40.1Z"/><polygon class="cls-8" points="91.7 5.7 101.9 10.9 112.2 26.1 120.6 10.9 124 4.5 85.5 0 91.7 5.7"/></g></g></svg>