<svg xmlns="http://www.w3.org/2000/svg" viewBox="0 0 165.2 164.2"><defs><style>.cls-1{fill:#efd2c5;}.cls-2{fill:#c97378;}.cls-3{fill:#926d5a;}.cls-4{fill:#db9c94;}.cls-5{fill:none;stroke:#cb8c84;stroke-miterlimit:10;stroke-width:6px;}</style></defs><title>Eric</title><g id="Layer_2" data-name="Layer 2"><g id="Avatars"><circle class="cls-1" cx="17.1" cy="80.7" r="17.1"/><circle class="cls-2" cx="17.1" cy="80.7" r="8.5"/><circle class="cls-1" cx="148.1" cy="80.7" r="17.1"/><circle class="cls-2" cx="148.1" cy="80.7" r="8.5"/><path class="cls-1" d="M82.1,164.2h0c-33-5.1-48.6-25.6-60-51.3a64,64,0,0,1-5.5-26.1V65.6A65.7,65.7,0,0,1,82.1.1h0a65.7,65.7,0,0,1,65.5,65.5V81.5a79.7,79.7,0,0,1-10.6,40C124.1,143.6,107.2,160.9,82.1,164.2Z"/><path class="cls-3" d="M16.5,65.6S29.5,42.8,36.5,38.2s33.6,6.2,84.6-1.7c0,0,15.5,3,26.6,29.1,0,0,7.9-45.9-40.7-61.4C54.9-12.4,28,25.5,28,25.5S14.4,39.9,16.5,65.6Z"/><rect class="cls-4" x="68.7" y="75.1" width="27.3" height="44.8" rx="13.2" ry="13.2"/><circle cx="114.9" cy="74.8" r="5.9"/><circle cx="45.6" cy="74.8" r="5.9" transform="translate(-31 117.5) rotate(-87.8)"/><path class="cls-5" d="M57.1,110.8a25.3,25.3,0,1,0,50.4-.6"/><rect class="cls-3" x="34.2" y="60" width="22.8" height="5.63" rx="2.8" ry="2.8"/><rect class="cls-3" x="103.6" y="60" width="22.8" height="5.63" rx="2.8" ry="2.8"/></g></g></svg>