<svg xmlns="http://www.w3.org/2000/svg" viewBox="0 0 130.2 178"><defs><style>.cls-1{fill:#e4b69d;}.cls-2{fill:#c97378;}.cls-3{fill:#db9c94;}.cls-4{fill:#926d5a;}.cls-5,.cls-6{fill:none;stroke-miterlimit:10;}.cls-5{stroke:#5a5b5b;stroke-width:2.04px;}.cls-6{stroke:#cb8c84;stroke-width:4.72px;}.cls-7{opacity:0.24;}.cls-8{fill:#0f0f0f;}</style></defs><title>James_1</title><g id="Layer_2" data-name="Layer 2"><g id="Avatars"><ellipse class="cls-1" cx="14.2" cy="102.7" rx="14.2" ry="19.3"/><ellipse class="cls-2" cx="14.2" cy="102.7" rx="7.1" ry="9.6"/><ellipse class="cls-1" cx="116" cy="102.7" rx="14.2" ry="19.3"/><ellipse class="cls-2" cx="116" cy="102.7" rx="7.1" ry="9.6"/><path class="cls-1" d="M115.9,123.3V67.4c0-6.5-4.4-11.8-9.9-11.8H25.3c-5.4,0-9.9,5.3-9.9,11.8v55.9c-.7,8.2,1.6,16.8,6.8,23L37.1,164c15.7,18.7,41.4,18.7,57.2,0L109,146.4C114.3,140.1,116.6,131.6,115.9,123.3Z"/><rect class="cls-3" x="46.5" y="120.9" width="38.4" height="16.01" rx="7.7" ry="7.7"/><path class="cls-3" d="M65.7,142.7h0c-5.3,0-9.7-4.7-9.7-10.5l2.9-29.5c0-5.8,1.5-11.6,6.8-11.6h0c5.3,0,6.8,5.6,6.8,11.4l2.9,29.7C75.4,137.9,71,142.7,65.7,142.7Z"/><ellipse cx="41.6" cy="95.8" rx="4.8" ry="5.2"/><ellipse cx="89.7" cy="95.8" rx="4.8" ry="5.2"/><rect class="cls-4" x="28.5" y="81.9" width="26.4" height="5.27" rx="2.5" ry="2.5"/><rect class="cls-4" x="76.8" y="81.9" width="26.4" height="5.27" rx="2.5" ry="2.5"/><path class="cls-5" d="M49.8,107.5l-18.3-2c-5.5,0-8.1-2.8-8.1-8.8v-.8c0-5.5,4.2-10,9.2-10H49.8c5.5,0,10,4.9,10,10.8h0C59.8,102.6,55.3,107.5,49.8,107.5Z"/><path class="cls-5" d="M59.4,93.4s4.1-2.3,6.3-2"/><line class="cls-5" x1="15.3" y1="82.2" x2="23.7" y2="93.4"/><path class="cls-5" d="M81.1,107.5l18.3-2c5.5,0,8.1-2.8,8.1-8.8v-.8c0-5.5-4.2-10-9.2-10H81.1c-5.5,0-10,4.9-10,10.8h0C71.1,102.6,75.6,107.5,81.1,107.5Z"/><line class="cls-5" x1="107.2" y1="93.4" x2="115.7" y2="82.2"/><path class="cls-5" d="M71.6,93.4s-4.1-2.3-6.3-2"/><path class="cls-6" d="M45.3,151.5a31.9,31.9,0,0,0,17.6,6.8A34.5,34.5,0,0,0,85,152"/><path class="cls-7" d="M115.9,112.2s-7.5,38.9-23,46.9c-3,1.5-4.1-16.8-8.1-16.5l-22.4,1.2-15.7-1.2c-4-.4-6.5,15.3-9.4,13.7-15.5-8.1-22-44.2-22-44.2s-1.3,20.2,2.4,26.9,6.5,9.6,14.6,19.4,11.1,11.8,11.1,11.8,10.2,8.1,22.1,7.8,22.1-7.8,22.1-7.8,3.6-3.1,11.1-11.8,9.3-10.2,12.5-15.3c.7-1.1,1.2-2.6,2.1-4.1C117.6,132.4,115.9,112.2,115.9,112.2ZM86,157.5c-18.5,22-37.3,4.4-41.6,1.5s.8-11.3.8-11.3c22.5,9.9,38.2,0,38.2,0C90.5,147.7,86,157.5,86,157.5Z"/><path class="cls-4" d="M12.3,83.7a1.3,1.3,0,0,0,.6-.6c2-3.4,1.3-8.1,2.5-12.1a2.6,2.6,0,0,1,.4-.9,1.5,1.5,0,0,1,1.8-.3,16,16,0,0,1,1.7,1.2c1.5,1.1,3.4,1,5.2,1.4s3.6,1.9,3.6,4-1.7,3.3-3.2,4.3l-6.5,4.1a4.4,4.4,0,0,0-1.6,1.5c-.6,1.1-1.1.3-.8,1.6-1.5-2.5-2.4-2.2-4.3-4.1"/><path class="cls-4" d="M117.7,83.6c-1.5-2-1.5-4.4-1.5-6.7s.1-6.9,1.6-10.1a2.3,2.3,0,0,0-2,.4,6.6,6.6,0,0,0-1.1,1.3,8.3,8.3,0,0,1-5.2,2.8c-1.6.2-3.4.2-4.7.8a2.6,2.6,0,0,0-1.4,3.3,6.6,6.6,0,0,0,3.1,2.9c1.4.8,2.9,1.4,4.3,2.1a17.8,17.8,0,0,1,5.3,4.1"/><path class="cls-8" d="M9.2,44.3,29.2,22.4S40.5,2.6,41.3,2.9l23.8,8.4c.8.3,16.8-5.2,16.8-5.2l14.6,7,11.3,20.6,12,10.5,5,14.1s-35.4,28.5-69,17S2.1,75.7,9.2,44.3Z"/><path d="M109.4,32.3C104.6,18.6,96.3,1.6,84.2.1H83c-3.6,0-6.5,2.2-9.5,4.5s-5.7,4.4-8.7,4.5-3.6-1.2-6.1-3.4S52.1,0,46,0h-.7C43.6.3,29.5,3.2,20.5,32.9,14.1,35.5.4,41.9.4,51.8c0,13.9,22.7,27.9,66.1,27.9,35.3,0,51.4-10.9,56.8-15.5s6.7-8.1,6.5-12C129.2,41.8,116.2,35.1,109.4,32.3Zm-4.1,16.4c-2.3,2.1-11.6,7.7-41.1,7.4s-37.3-5.9-38.6-7.1c.5-2.5,1-4.9,1.5-7.1a106.8,106.8,0,0,0,37.8,6.9,110.3,110.3,0,0,0,38.6-7C104.1,44,104.8,46.3,105.3,48.7ZM46.5,7.3c2,.1,3.6,1.5,6.1,3.6s6.5,5.6,12.1,5.6h.8c5.9-.3,10.3-3.7,13.9-6.5a26.2,26.2,0,0,1,3.8-2.6c7.2,1.4,14.4,16.2,19.1,30.7a103,103,0,0,1-74.3.1C34.7,12.2,45.1,7.8,46.5,7.3Zm70.4,51.8c-3.6,3.2-17.7,13.3-50.6,13.3C27.2,72.4,8.9,60.1,8.9,51.8c0-4.1,4.7-7.6,9.2-9.8l-1.5,6.9a3.9,3.9,0,0,0,0,1.4c.8,2.9,6.7,12.4,47.3,12.9H67c38.6,0,45.7-10.3,46.6-12.5a4.6,4.6,0,0,0,.3-2.1c-.3-1.6-1.1-4.5-2.1-8.1,4.4,2.7,8.8,6.9,9.2,12C121.3,53.9,120.2,56.2,116.9,59.1Z"/></g></g></svg>