<svg xmlns="http://www.w3.org/2000/svg" xmlns:xlink="http://www.w3.org/1999/xlink" viewBox="0 0 154.8 183"><defs><style>.cls-1{fill:none;}.cls-2{fill:#efc7b0;}.cls-3{fill:#c97378;}.cls-4{clip-path:url(#clip-path);}.cls-5{fill:#0a3542;}.cls-6{fill:#ed1c24;}.cls-7{fill:#fff;}.cls-8{fill:#db9c94;}.cls-9{fill:#77562f;}.cls-10{fill:#0f0f0f;}.cls-11{fill:#f15a22;stroke:#000;stroke-miterlimit:10;stroke-width:0.5px;}</style><clipPath id="clip-path"><path class="cls-1" d="M93.4,143.3a16.1,16.1,0,1,1-32.1,0c0-8.9,7.2-10.8,16.1-10.8S93.4,134.4,93.4,143.3Z"/></clipPath></defs><title>Justin</title><g id="Layer_2" data-name="Layer 2"><g id="Avatars"><circle class="cls-2" cx="19.5" cy="92.6" r="19.5"/><circle class="cls-3" cx="19.5" cy="92.6" r="9.7"/><circle class="cls-2" cx="135.2" cy="92.6" r="19.5"/><circle class="cls-3" cx="135.2" cy="92.6" r="9.7"/><path class="cls-2" d="M77.4,182.5h0c-31.8,0-54.2-37.6-57.9-57.9V78.3A58,58,0,0,1,77.4,20.5h0a58,58,0,0,1,57.9,57.9v46.3C132.9,141,109.2,182.5,77.4,182.5Z"/><g class="cls-4"><circle class="cls-5" cx="77.4" cy="143.3" r="17.2"/><circle class="cls-6" cx="77.4" cy="165.8" r="17.2"/><rect class="cls-7" x="32.6" y="114" width="83.8" height="26.88"/></g><rect class="cls-8" x="64.3" y="80.5" width="26.1" height="47.16" rx="13.1" ry="13.1"/><circle cx="47.3" cy="85.9" r="6.7"/><circle cx="106.7" cy="85.9" r="6.7"/><rect class="cls-9" x="35.3" y="70.9" width="21.6" height="4.86" rx="2.4" ry="2.4"/><rect class="cls-9" x="95.9" y="70.9" width="21.6" height="4.86" rx="2.4" ry="2.4"/><path class="cls-9" d="M38.5,161.8S59.9,178.2,78,170c0,0,13.5,7.8,35.8-6.3,0,0-16.1,19.6-36.4,18.7C68.9,182.1,57.6,182.5,38.5,161.8Z"/><path class="cls-9" d="M79.6,167.2a2.6,2.6,0,0,1-4.5,0l-.8-1.3-.8-1.3a2.6,2.6,0,0,1,2.3-3.9h3.1a2.6,2.6,0,0,1,2.3,3.9l-.8,1.3Z"/><path class="cls-10" d="M142,68.3q-3.6-2-7.4-3.7a183.4,183.4,0,0,0-3.7-31.1,23.8,23.8,0,0,0-15.3-17L92.8,8.3A41.5,41.5,0,0,0,85,6.2V4.6a5.5,5.5,0,0,0-.1-.8c-4.3-.8-8.3-1.3-12.7,0a5.5,5.5,0,0,0,0,.6V6.1A41.6,41.6,0,0,0,64.6,8L41.8,16A23.8,23.8,0,0,0,26.2,32.8a183.4,183.4,0,0,0-4.1,31q-3.9,1.7-7.5,3.6a2.5,2.5,0,0,0-1.2,3.5A2.9,2.9,0,0,0,17.1,72h.3C34.2,63,55.8,58.1,78.3,58.3a136.3,136.3,0,0,1,52,10.2h.3q4.4,1.9,8.4,4.1a2.9,2.9,0,0,0,3.9-.8A2.5,2.5,0,0,0,142,68.3Z"/><path d="M140.4,71l-3.5-1.9-3.6-1.8-1.7-.8V64.7a181.2,181.2,0,0,0-2-21.4c-.3-1.8-.6-3.5-.9-5.3l-.5-2.6-.3-1.3-.3-1.1a19.8,19.8,0,0,0-4.7-8.1,21.8,21.8,0,0,0-7.9-5.3l-10.2-3.8L94.5,12.1l-2.6-.9-2.4-.8a38.9,38.9,0,0,0-4.9-1.2L82,8.8V4.7h0V4.2l2.4,2.5A35.5,35.5,0,0,0,78.6,6a17.4,17.4,0,0,0-5.4.7l2.1-2.5V8.7l-2.5.4a39,39,0,0,0-4.9,1.1l-2.4.8-2.6.9L52.5,15.5,42.3,19.1a21.8,21.8,0,0,0-8,5.2,19.8,19.8,0,0,0-4.8,8l-.3,1.1-.3,1.3-.5,2.6c-.3,1.8-.7,3.5-1,5.3a181.1,181.1,0,0,0-2.3,21.3h0v1.5l-1.7,1.1-4,2.5-2,1.2-1,.6h.4a1.5,1.5,0,0,0,.5-1.4,1.7,1.7,0,0,0-.7-1.2,1.4,1.4,0,0,0-1.1-.2h-.1l.5-.3,1.1-.7A100.7,100.7,0,0,1,35,58.6a119.3,119.3,0,0,1,19.2-4.9c3.2-.6,6.5-1,9.8-1.3l4.9-.4,4.9-.2a121.5,121.5,0,0,1,19.7,1c3.3.4,6.5,1,9.7,1.8s6.4,1.6,9.5,2.6,6.2,2.1,9.3,3.3l4.5,1.9,2.2,1,2.3,1.1c2.9,1.4,5.8,3,8.6,4.7l.5.3.4.2h-.2l-.3.3a.9.9,0,0,0-.1.7A.5.5,0,0,0,140.4,71Zm3.1-5.4a5.7,5.7,0,0,1,1.2,9.2,6.4,6.4,0,0,1-4.7,1.8,6.5,6.5,0,0,1-2.5-.6l-1.2-.6a90.5,90.5,0,0,0-8.5-3.4l-2.1-.7-2.2-.6-4.4-1.2c-3-.7-6-1.3-8.9-1.9l-9-1.4-9-.9c-6-.5-12-.6-18.1-.5a157.5,157.5,0,0,0-35.8,4.7l-2.2.6-2.2.6L29.6,72l-4.3,1.5-4.1,1.6-1,.4-.5.2-.5.2-.7.3a7.4,7.4,0,0,1-5.7-.3,6.9,6.9,0,0,1-3.8-4.6,6.5,6.5,0,0,1,1.5-5.8l1.1-1,.6-.4.5-.3,1.1-.4,2.3-.9,4.6-1.6-1.8,2.6h0a187.1,187.1,0,0,1,2.4-22c.3-1.8.6-3.6,1-5.5l.6-2.7.3-1.4.4-1.5A25.8,25.8,0,0,1,30,20a27.8,27.8,0,0,1,10.2-6.6l1.3-.5,1.3-.5,2.6-.9,5.1-1.8L60.8,6.2l2.6-.9,2.8-.9a45,45,0,0,1,5.7-1.2L69.3,6.1V1.5l2-.6A23.4,23.4,0,0,1,78.7,0a41.2,41.2,0,0,1,6.8.8l2.3.4L88,3.4V6.2l-2.5-3a44.9,44.9,0,0,1,5.7,1.3l2.8.9,2.6.9,10.3,3.8L117.1,14a27.8,27.8,0,0,1,10.1,6.7,25.8,25.8,0,0,1,6.1,10.6l.4,1.5.3,1.4.5,2.7c.3,1.8.6,3.6.9,5.5a187.2,187.2,0,0,1,2.1,22.1l-1.8-2.6,3.8,1.9Z"/><path class="cls-11" d="M81.4,44.5a90.6,90.6,0,0,0-10.2.2l-3.2-2.6-.3-3.4,2.9-.2.2,2.3L72.1,42c3.3-.2,4.9-.2,8.1-.1L83,39.5V37.3l-1-1.5a97.9,97.9,0,0,0-11.3.2l-3.4-2.6-.5-5.3L72,23.9c4-.2,6.1-.2,10.1-.1L86.7,27v2.1H84.6l-3.7-2.6H73.3L70.1,29l.2,3.1,1.6,1.2a100.1,100.1,0,0,1,12,0L86,36.7l-.3,4Z"/><path class="cls-11" d="M89.4,31.4l.2-2.6a104.2,104.2,0,0,0-14.2-.5L75.8,48h2.6V40.1h2.7V37.5H78.5V30.9A102,102,0,0,1,89.4,31.4Z"/></g></g></svg>