<svg xmlns="http://www.w3.org/2000/svg" xmlns:xlink="http://www.w3.org/1999/xlink" viewBox="0 0 582.3 292.6"><defs><style>.cls-1,.cls-11,.cls-13,.cls-14,.cls-2{fill:none;}.cls-2{stroke:#231f20;stroke-width:0.65px;}.cls-3{fill:#d6414c;}.cls-4{fill:#0a3542;}.cls-10,.cls-5,.cls-8{fill:#d59b67;}.cls-12,.cls-6{fill:url(#Scotch_Rule_2);}.cls-10,.cls-11,.cls-12,.cls-14,.cls-7,.cls-8,.cls-9{stroke:#000;}.cls-10,.cls-11,.cls-12,.cls-13,.cls-14,.cls-7,.cls-8,.cls-9{stroke-miterlimit:10;}.cls-12,.cls-7,.cls-8,.cls-9{stroke-width:0.48px;}.cls-7{fill:url(#Scotch_Rule_2-3);}.cls-9{fill:url(#Scotch_Rule_2-7);}.cls-10{stroke-width:0.52px;}.cls-11{stroke-width:0.49px;}.cls-13{stroke:#0a3542;}.cls-13,.cls-14{stroke-width:2.52px;}</style><pattern id="Scotch_Rule_2" data-name="Scotch Rule 2" width="73.1" height="72" patternTransform="translate(4863.4 115.4) scale(0.47 0.49)" patternUnits="userSpaceOnUse" viewBox="0 0 73.1 72"><rect class="cls-1" width="73.1" height="72"/><line class="cls-2" x1="12.7" y1="72" x2="12.7"/><line class="cls-2" x1="31" y1="72" x2="31"/><line class="cls-2" x1="49.3" y1="72" x2="49.3"/><line class="cls-2" x1="67.6" y1="72" x2="67.6"/><line class="cls-2" x1="5.5" y1="72" x2="5.5"/><line class="cls-2" x1="23.8" y1="72" x2="23.8"/><line class="cls-2" x1="42.1" y1="72" x2="42.1"/><line class="cls-2" x1="60.4" y1="72" x2="60.4"/></pattern><pattern id="Scotch_Rule_2-3" data-name="Scotch Rule 2" width="73.1" height="72" patternTransform="translate(4861.2 115.4) scale(0.47 0.49)" patternUnits="userSpaceOnUse" viewBox="0 0 73.1 72"><rect class="cls-1" width="73.1" height="72"/><line class="cls-2" x1="12.7" y1="72" x2="12.7"/><line class="cls-2" x1="31" y1="72" x2="31"/><line class="cls-2" x1="49.3" y1="72" x2="49.3"/><line class="cls-2" x1="67.6" y1="72" x2="67.6"/><line class="cls-2" x1="5.5" y1="72" x2="5.5"/><line class="cls-2" x1="23.8" y1="72" x2="23.8"/><line class="cls-2" x1="42.1" y1="72" x2="42.1"/><line class="cls-2" x1="60.4" y1="72" x2="60.4"/></pattern><pattern id="Scotch_Rule_2-7" data-name="Scotch Rule 2" width="73.1" height="72" patternTransform="translate(4860.9 115.4) scale(0.47 0.49)" patternUnits="userSpaceOnUse" viewBox="0 0 73.1 72"><rect class="cls-1" width="73.1" height="72"/><line class="cls-2" x1="12.7" y1="72" x2="12.7"/><line class="cls-2" x1="31" y1="72" x2="31"/><line class="cls-2" x1="49.3" y1="72" x2="49.3"/><line class="cls-2" x1="67.6" y1="72" x2="67.6"/><line class="cls-2" x1="5.5" y1="72" x2="5.5"/><line class="cls-2" x1="23.8" y1="72" x2="23.8"/><line class="cls-2" x1="42.1" y1="72" x2="42.1"/><line class="cls-2" x1="60.4" y1="72" x2="60.4"/></pattern></defs><title>logo_1</title><g id="Layer_2" data-name="Layer 2"><g id="Layer_1-2" data-name="Layer 1"><polygon class="cls-3" points="27.3 94.7 64.5 94.7 79.9 122.6 95.3 94.7 132.5 94.7 79.9 189.7 27.3 94.7"/><path d="M132.1,95,79.9,189.2,27.7,95H64.4l15.1,27.3.4.8.4-.8L95.5,95h36.6m.8-.5H95.2L79.9,122.1,64.6,94.5H26.9l53,95.7,53-95.7Z"/><polygon class="cls-4" points="80.3 190.1 133 94.8 145.6 100.1 92.8 195.4 80.3 190.1"/><path class="cls-4" d="M133.1,95.1l12.1,5.1L92.7,195.1l-12.1-5.1,52.5-94.8m-.2-.6-53,95.7,13,5.5,53-95.7-13-5.5Z"/><polygon class="cls-4" points="65.3 95.1 74.6 100 84.1 114.5 79.9 121.6 65.3 95.1"/><path class="cls-4" d="M65.9,95.7l8.5,4.5,9.4,14.3-3.8,6.6L65.9,95.7m-1.2-1.2,15.3,27.6,4.4-7.6L74.7,99.8,64.6,94.5Z"/><polygon class="cls-5" points="59.4 138.9 38.8 100.4 60.6 100.4 79.9 137 99.2 100.4 120.7 100.4 79.9 177.7 59.4 138.9"/><path d="M120.3,100.7l-20.1,38.1L79.9,177.2,59.6,138.8,39.2,100.7H60.5l9.3,17.6,9.7,18.4.4.8.4-.8L90,118.3l9.3-17.6h21m.8-.5H99.1l-9.5,17.9-9.7,18.4-9.7-18.4-9.5-17.9H38.4L59.2,139l20.7,39.3L100.6,139l20.5-38.8Z"/><polygon class="cls-6" points="59.4 138.9 38.8 100.4 60.6 100.4 79.9 137 99.2 100.4 120.7 100.4 79.9 177.7 59.4 138.9"/><path d="M120.3,100.7l-20.1,38.1L79.9,177.2,59.6,138.8,39.2,100.7H60.5l9.3,17.6,9.7,18.4.4.8.4-.8L90,118.3l9.3-17.6h21m.8-.5H99.1l-9.5,17.9-9.7,18.4-9.7-18.4-9.5-17.9H38.4L59.2,139l20.7,39.3L100.6,139l20.5-38.8Z"/><polygon class="cls-3" points="496.5 195.5 480.2 166 463.9 195.5 424.6 195.5 480.2 95.1 535.8 195.5 496.5 195.5"/><path d="M480.2,95.6l55.2,99.6H496.7l-16-28.9-.4-.8-.4.8-16,28.9H425l55.2-99.6m0-1-56,101.1h39.9l16.1-29.1,16.1,29.1h39.9l-56-101.1Z"/><polygon class="cls-4" points="480.8 95.1 503.3 106 549.7 189.7 536.4 195.4 480.8 95.1"/><path class="cls-4" d="M481.4,95.7l21.7,10.5,46.2,83.4-12.8,5.5L481.4,95.7m-1.2-1.1,56,101.1,13.8-5.8-46.5-84L480.2,94.6Z"/><polygon class="cls-4" points="480.2 167.1 484.6 174.6 474.6 189.9 464.7 195.1 480.2 167.1"/><path class="cls-4" d="M480.2,167.6l4.1,7-9.9,15.2-9.1,4.8,14.9-26.9m0-1-16.1,29.1,10.7-5.6,10.2-15.5-4.7-8Z"/><polygon class="cls-5" points="499.3 186.9 490.7 170.6 480.2 150.8 461.2 186.9 438.1 186.9 458.5 148.8 480.2 107.7 522.1 186.9 499.3 186.9"/><path d="M480.2,108.2l21.5,40.7,20,37.8H499.4l-8.5-16.2-10.2-19.4-.4-.8-.4.8-10.2,19.4L461,186.7H438.5l20.3-37.8,21.5-40.7m0-1.1-21.9,41.5-20.7,38.5h23.7l8.7-16.4,10.2-19.4,10.2,19.4,8.6,16.4h23.4l-20.3-38.5-21.9-41.5Z"/><polygon class="cls-7" points="499.1 187.2 490.5 170.8 480.2 151.4 470 170.8 461.3 187.2 437.6 187.2 458.3 148.7 480.2 107.2 502.1 148.7 522.5 187.2 499.1 187.2"/><polygon class="cls-4" points="153.3 192.4 160.2 192.4 160.2 195.2 153.3 192.4"/><path class="cls-4" d="M159.9,192.7v2.1l-5.3-2.1h5.3m.5-.5H152l8.4,3.3v-3.3Z"/><polygon class="cls-4" points="160.7 195.3 160.7 165.2 169.5 165.2 169.5 132.8 160.7 100.1 213.7 100.1 213.7 95.2 223.9 99.9 223.9 132.5 212.9 132.5 212.9 165.2 213.9 165.2 213.9 160.1 223.9 166.4 223.9 195.3 160.7 195.3"/><path class="cls-4" d="M214,95.6l9.7,4.5v32.2h-11v33.2h1.5v-4.9l9.5,6V195H160.9V165.4h8.8V132.8h0l-8.7-32.3H214V95.6m-.5-.8v5H160.4l8.8,33V165h-8.8v30.6h63.7V166.3l-10.5-6.6V165h-.5V132.8h11v-33l-10.6-4.9Z"/><polygon class="cls-3" points="152.2 192 152.2 159.9 161 159.9 161 127.2 152.2 127.2 152.2 94.7 213.2 94.7 213.2 127.2 204.4 127.2 204.4 159.9 213.4 159.9 213.2 192 152.2 192"/><path d="M213,95v32h-8.8v33.1h9l-.2,31.6H152.5V160.1h8.8V127h-8.8V95H213m.5-.5H152v33h8.8v32.2H152v32.6h61.5l.2-32.6h-9V127.5h8.8v-33Z"/><polygon class="cls-5" points="158.2 187 157.8 165.5 167 165.5 167 121.9 158.2 121.9 158.2 100.7 207.3 100.7 207.3 121.9 198.4 121.9 198.4 165.5 207.3 165.5 207.3 187 158.2 187"/><path d="M207,100.9v20.7h-8.9v44.1H207v21H158.4l-.4-21h9.2V121.6h-8.9V100.9H207m.5-.5H157.9v21.7h8.9v43.1h-9.2l.4,22h49.6v-22h-8.9V122.1h8.9V100.4Z"/><polygon class="cls-6" points="158.2 186.9 157.8 165.5 167 165.5 167 121.9 158.2 121.9 158.2 100.7 207.3 100.7 207.3 121.9 198.4 121.9 198.4 165.5 207.3 165.5 207.3 186.9 158.2 186.9"/><path d="M207,100.9v20.7h-8.9v44.1H207v21H158.4l-.4-21h9.2V121.6h-8.9V100.9H207m.5-.5H157.9v21.7h8.9v43.1h-9.2l.4,22h49.6v-22h-8.9V122.1h8.9V100.4Z"/><path class="cls-4" d="M249.8,195.6l-11-3.1,11.2-2.3V168.1h57.4a2.7,2.7,0,0,0,1.8-.5,3.1,3.1,0,0,0,.5-2,4.3,4.3,0,0,0-.2-1.4,1.9,1.9,0,0,0-.4-.7l-.5-.3-1.2-.2H276.7a27.6,27.6,0,0,1-8.7-1.5,26.2,26.2,0,0,1-8.9-5.1,28.2,28.2,0,0,1-6.9-9.4,32.5,32.5,0,0,1-2.8-14,32.4,32.4,0,0,1,2.8-14,28.5,28.5,0,0,1,6.9-9.3,26,26,0,0,1,8.9-5.2,27.6,27.6,0,0,1,8.7-1.5h39.4l2.3-8.1,9.6,5.7v29.9H276.7a2.4,2.4,0,0,0-1.7.5,3,3,0,0,0-.5,2.1,3.4,3.4,0,0,0,.5,2,2.7,2.7,0,0,0,1.8.5h31a27.6,27.6,0,0,1,11.7,3,28.9,28.9,0,0,1,5.7,3.8,26.6,26.6,0,0,1,5,5.8,29.7,29.7,0,0,1,3.5,7.8,34.9,34.9,0,0,1,1.3,9.6,34.5,34.5,0,0,1-1.3,9.7,30.7,30.7,0,0,1-3.4,7.7,24.9,24.9,0,0,1-5.1,5.9,29.2,29.2,0,0,1-5.7,3.7,27.2,27.2,0,0,1-6,2.1,26.1,26.1,0,0,1-5.8.7Z"/><path class="cls-4" d="M318.6,95.2l9.2,5.5v29.5H276.7a2.4,2.4,0,0,0-1.9.6,3.3,3.3,0,0,0-.6,2.3,3.4,3.4,0,0,0,.5,2.2,2.8,2.8,0,0,0,1.9.6h31a27.3,27.3,0,0,1,11.6,3,28.7,28.7,0,0,1,5.6,3.8,26.4,26.4,0,0,1,5,5.8,29.4,29.4,0,0,1,3.4,7.7,34.7,34.7,0,0,1,1.2,9.6,34.3,34.3,0,0,1-1.3,9.6,30.5,30.5,0,0,1-3.4,7.7,24.7,24.7,0,0,1-5.1,5.9,29,29,0,0,1-5.7,3.7,27,27,0,0,1-6,2.1,25.9,25.9,0,0,1-5.7.7H249.9l-10-2.8,10-2h.4v-22h57.2a2.8,2.8,0,0,0,2-.6,3.3,3.3,0,0,0,.5-2.2,4.5,4.5,0,0,0-.2-1.4,2.2,2.2,0,0,0-.4-.8l-.6-.4-1.3-.2H276.7a27.4,27.4,0,0,1-8.6-1.5,26,26,0,0,1-8.8-5.1,27.9,27.9,0,0,1-6.9-9.3,32.3,32.3,0,0,1-2.8-13.9,32.1,32.1,0,0,1,2.8-13.9,28.3,28.3,0,0,1,6.8-9.3,25.8,25.8,0,0,1,8.8-5.1,27.3,27.3,0,0,1,8.6-1.5h39.6v-.4l2.2-7.6m-.3-.7-2.3,8.2H276.7a27.8,27.8,0,0,0-8.7,1.5,26.3,26.3,0,0,0-9,5.2,28.8,28.8,0,0,0-7,9.4,32.6,32.6,0,0,0-2.8,14.1,32.8,32.8,0,0,0,2.8,14.1,28.4,28.4,0,0,0,7,9.5,26.5,26.5,0,0,0,9,5.2,27.8,27.8,0,0,0,8.7,1.5h30.7l1.1.2.4.3a1.7,1.7,0,0,1,.3.6,4.1,4.1,0,0,1,.2,1.3,2.9,2.9,0,0,1-.4,1.9,2.4,2.4,0,0,1-1.6.4H249.8V190l-12,2.4,12,3.3h57.7a26.4,26.4,0,0,0,5.8-.7,27.5,27.5,0,0,0,6.1-2.2,29.5,29.5,0,0,0,5.8-3.8,25.2,25.2,0,0,0,5.2-6,31,31,0,0,0,3.4-7.8,34.8,34.8,0,0,0,1.3-9.8,35.2,35.2,0,0,0-1.3-9.7,29.9,29.9,0,0,0-3.5-7.8,26.9,26.9,0,0,0-5.1-5.9,29.2,29.2,0,0,0-5.7-3.9,27.8,27.8,0,0,0-11.8-3.1h-31c-.3,0-1.3,0-1.6-.4a3.4,3.4,0,0,1-.4-1.9c0-1.4.3-1.8.5-2s1.1-.4,1.5-.4h51.6V100.4l-10-5.9Z"/><path class="cls-3" d="M246.3,183v-14h49.6a7.4,7.4,0,0,0,6-2.5,10.1,10.1,0,0,0,2.1-6.7,12,12,0,0,0-.6-3.7,9,9,0,0,0-1.6-3,7.2,7.2,0,0,0-2.6-1.9,8,8,0,0,0-3.3-.7H266.1a20.6,20.6,0,0,1-6.7-1.2,19.5,19.5,0,0,1-6.6-4,21.6,21.6,0,0,1-5.1-7.2,26.2,26.2,0,0,1-2-10.9,26,26,0,0,1,2-10.9,22,22,0,0,1,5.1-7.2,19.3,19.3,0,0,1,6.6-4,20.6,20.6,0,0,1,6.7-1.2h43.7v14H266.1a7.3,7.3,0,0,0-5.9,2.6,10.3,10.3,0,0,0-2.1,6.7,10.1,10.1,0,0,0,2.1,6.7,7.4,7.4,0,0,0,5.9,2.5h29.7a20.5,20.5,0,0,1,9.1,2.4,22.1,22.1,0,0,1,4.3,3,20,20,0,0,1,3.7,4.4,23,23,0,0,1,2.5,5.9,28.5,28.5,0,0,1,.9,7.6,28.1,28.1,0,0,1-1,7.6,24.1,24.1,0,0,1-2.5,6,18.3,18.3,0,0,1-3.7,4.4,22.4,22.4,0,0,1-4.4,3,20.4,20.4,0,0,1-4.6,1.7,19.3,19.3,0,0,1-4.4.5Z"/><path d="M309.6,104.1v13.5H266.1a7.5,7.5,0,0,0-6.1,2.7,10.5,10.5,0,0,0-2.2,6.9,10.3,10.3,0,0,0,2.2,6.9,7.6,7.6,0,0,0,6.1,2.6h29.8a20.4,20.4,0,0,1,8.9,2.4,21.9,21.9,0,0,1,4.3,3,19.8,19.8,0,0,1,3.6,4.4,22.8,22.8,0,0,1,2.5,5.9,28.3,28.3,0,0,1,.9,7.5,27.9,27.9,0,0,1-1,7.6,23.9,23.9,0,0,1-2.5,5.9,18.1,18.1,0,0,1-3.6,4.3,22.2,22.2,0,0,1-4.3,2.9,20.1,20.1,0,0,1-4.5,1.7,19.1,19.1,0,0,1-4.3.5H246.5V169.3h49.3a7.6,7.6,0,0,0,6.1-2.6,10.3,10.3,0,0,0,2.2-6.8,12.2,12.2,0,0,0-.6-3.8,9.2,9.2,0,0,0-1.6-3,7.4,7.4,0,0,0-2.6-2,8.2,8.2,0,0,0-3.4-.7H266.1a20.4,20.4,0,0,1-6.6-1.2,19.3,19.3,0,0,1-6.6-3.9,21.4,21.4,0,0,1-5.1-7.1,26,26,0,0,1-2-10.8,25.8,25.8,0,0,1,2-10.8,21.8,21.8,0,0,1,5.1-7.1,19.1,19.1,0,0,1,6.6-4,20.4,20.4,0,0,1,6.6-1.2h43.5m.4-.4H266.1a20.8,20.8,0,0,0-6.7,1.2,19.4,19.4,0,0,0-6.7,4.1,22.1,22.1,0,0,0-5.2,7.3,26.1,26.1,0,0,0-2.1,11,26.3,26.3,0,0,0,2.1,11,21.7,21.7,0,0,0,5.2,7.3,19.6,19.6,0,0,0,6.7,4,20.8,20.8,0,0,0,6.7,1.2h29.7a7.8,7.8,0,0,1,3.3.7,6.9,6.9,0,0,1,2.5,1.9,8.7,8.7,0,0,1,1.6,2.9,11.7,11.7,0,0,1,.5,3.7,9.8,9.8,0,0,1-2.1,6.5,7.1,7.1,0,0,1-5.8,2.4H246v14.4h49.8a19.4,19.4,0,0,0,4.4-.6,20.5,20.5,0,0,0,4.6-1.7,22.5,22.5,0,0,0,4.4-3,18.4,18.4,0,0,0,3.7-4.4,24.2,24.2,0,0,0,2.6-6,28.2,28.2,0,0,0,1-7.7,28.6,28.6,0,0,0-.9-7.7,23.2,23.2,0,0,0-2.6-6,20.1,20.1,0,0,0-3.7-4.5,22.2,22.2,0,0,0-4.4-3.1,20.8,20.8,0,0,0-9.1-2.4H266.1a7.1,7.1,0,0,1-5.7-2.4,9.8,9.8,0,0,1-2.1-6.6,10,10,0,0,1,2.1-6.6,7,7,0,0,1,5.7-2.5h43.9V103.7Z"/><path class="cls-3" d="M238,192.2V159.9h24.3v-.4h-.2a31.2,31.2,0,0,1-5.2-1.3,27.4,27.4,0,0,1-9.4-5.6,30.5,30.5,0,0,1-7.3-10.2,36.1,36.1,0,0,1-2.9-15.1,35.9,35.9,0,0,1,3-15.1,30.9,30.9,0,0,1,7.2-10.1,27.3,27.3,0,0,1,9.4-5.6,28.1,28.1,0,0,1,9.1-1.6h51.9v32.3H299.5v.5l2.7.5a28.2,28.2,0,0,1,6.3,2.4,30.3,30.3,0,0,1,6,4.2,28.9,28.9,0,0,1,5.3,6.4,32.7,32.7,0,0,1,3.6,8.4,38.6,38.6,0,0,1,1.3,10.3,38.2,38.2,0,0,1-1.3,10.4,33.8,33.8,0,0,1-3.6,8.4,27.1,27.1,0,0,1-5.5,6.5,30.5,30.5,0,0,1-6,4,28,28,0,0,1-6.3,2.3,26.6,26.6,0,0,1-6.1.7Z"/><path d="M317.8,95v31.9H299.5v1l2.6.5a28,28,0,0,1,6.3,2.4,30,30,0,0,1,5.9,4.1,28.6,28.6,0,0,1,5.2,6.3,32.5,32.5,0,0,1,3.6,8.4,38.4,38.4,0,0,1,1.3,10.3,38,38,0,0,1-1.3,10.3,33.6,33.6,0,0,1-3.5,8.3,26.9,26.9,0,0,1-5.4,6.4,30.3,30.3,0,0,1-5.9,4,27.7,27.7,0,0,1-6.3,2.3,26.4,26.4,0,0,1-6,.7H238.3V160.1h24.3v-.9h-.4a31,31,0,0,1-5.1-1.3,27.2,27.2,0,0,1-9.3-5.5,30.3,30.3,0,0,1-7.2-10.1,35.8,35.8,0,0,1-2.9-15,35.6,35.6,0,0,1,2.9-15,30.7,30.7,0,0,1,7.2-10,27,27,0,0,1,9.3-5.6,27.8,27.8,0,0,1,9-1.6h51.7m.5-.5H266.1a28.3,28.3,0,0,0-9.2,1.7,27.5,27.5,0,0,0-9.5,5.7,31.2,31.2,0,0,0-7.3,10.2,36.1,36.1,0,0,0-3,15.2,36.3,36.3,0,0,0,3,15.2,30.8,30.8,0,0,0,7.3,10.3,27.7,27.7,0,0,0,9.4,5.6,31.4,31.4,0,0,0,5.2,1.3,0,0,0,0,1,0,0H237.8v32.8h58a26.9,26.9,0,0,0,6.1-.8,28.2,28.2,0,0,0,6.4-2.4,30.8,30.8,0,0,0,6-4.1,27.4,27.4,0,0,0,5.5-6.6,34,34,0,0,0,3.6-8.4,38.5,38.5,0,0,0,1.4-10.5,38.9,38.9,0,0,0-1.3-10.4,33,33,0,0,0-3.6-8.5,29.1,29.1,0,0,0-5.3-6.4,30.5,30.5,0,0,0-6-4.2,28.4,28.4,0,0,0-6.4-2.5l-2.7-.5h18.8V94.5Z"/><path class="cls-8" d="M242.7,186.8V165.6h53.1a3.8,3.8,0,0,0,3.3-1.3,6.5,6.5,0,0,0,1.2-4.3,8.3,8.3,0,0,0-.4-2.6,5.3,5.3,0,0,0-.9-1.8,3.6,3.6,0,0,0-1.3-1,4.6,4.6,0,0,0-1.9-.4H266.1a24.1,24.1,0,0,1-7.8-1.4,23,23,0,0,1-7.9-4.7,25.2,25.2,0,0,1-6-8.4,29.8,29.8,0,0,1-2.4-12.4,29.6,29.6,0,0,1,2.4-12.4,25.6,25.6,0,0,1,6-8.4,22.8,22.8,0,0,1,7.9-4.7,24.1,24.1,0,0,1,7.8-1.4h47.3v21.3H266.1A3.7,3.7,0,0,0,263,123a6.8,6.8,0,0,0-1.3,4.4,6.5,6.5,0,0,0,1.2,4.3,3.8,3.8,0,0,0,3.2,1.2H296a24.1,24.1,0,0,1,10.5,2.8,25.6,25.6,0,0,1,5.1,3.5,23.6,23.6,0,0,1,4.3,5.2,26.8,26.8,0,0,1,2.9,6.9,32.2,32.2,0,0,1,1.1,8.6,31.8,31.8,0,0,1-1.1,8.6,27.8,27.8,0,0,1-2.9,6.9,21.9,21.9,0,0,1-4.4,5.3,26,26,0,0,1-5.1,3.4,23.8,23.8,0,0,1-5.4,2,22.8,22.8,0,0,1-5.2.6Z"/><path class="cls-9" d="M242.7,186.8V165.6h53.1a3.8,3.8,0,0,0,3.3-1.3,6.5,6.5,0,0,0,1.2-4.3,8.3,8.3,0,0,0-.4-2.6,5.3,5.3,0,0,0-.9-1.8,3.6,3.6,0,0,0-1.3-1,4.6,4.6,0,0,0-1.9-.4H266.1a24.1,24.1,0,0,1-7.8-1.4,23,23,0,0,1-7.9-4.7,25.2,25.2,0,0,1-6-8.4,29.8,29.8,0,0,1-2.4-12.4,29.6,29.6,0,0,1,2.4-12.4,25.6,25.6,0,0,1,6-8.4,22.8,22.8,0,0,1,7.9-4.7,24.1,24.1,0,0,1,7.8-1.4h47.3v21.3H266.1A3.7,3.7,0,0,0,263,123a6.8,6.8,0,0,0-1.3,4.4,6.5,6.5,0,0,0,1.2,4.3,3.8,3.8,0,0,0,3.2,1.2H296a24.1,24.1,0,0,1,10.5,2.8,25.6,25.6,0,0,1,5.1,3.5,23.6,23.6,0,0,1,4.3,5.2,26.8,26.8,0,0,1,2.9,6.9,32.2,32.2,0,0,1,1.1,8.6,31.8,31.8,0,0,1-1.1,8.6,27.8,27.8,0,0,1-2.9,6.9,21.9,21.9,0,0,1-4.4,5.3,26,26,0,0,1-5.1,3.4,23.8,23.8,0,0,1-5.4,2,22.8,22.8,0,0,1-5.2.6Z"/><path class="cls-10" d="M262.7,102.2"/><path class="cls-10" d="M288.6,141.1"/><polygon class="cls-4" points="370.1 195.6 358.1 192.2 370.3 190 370.3 128.7 353 100.7 418 100.7 418 94.9 430.6 100.7 430.6 131 413.1 131 413.1 195.6 370.1 195.6"/><path class="cls-4" d="M418.2,95.3l12.1,5.5v29.9H412.8v64.6H370.1l-10.9-3,11-2h.4V128.7h-.1l-17-27.5h64.8V95.3m-.5-.8v6H352.6l17.5,28.3v61.1L357,192.2l13.1,3.6h43.3V131.2h17.5V100.5h0l-13.1-6Z"/><path class="cls-11" d="M391.7,120.2"/><polygon class="cls-3" points="357.2 192 357.2 127.2 339.8 127.2 339.8 94.7 417.5 94.7 417.5 127.2 400 127.2 400 192 357.2 192"/><path d="M417.3,95v32H399.8v64.7H357.5V127H340V95h77.3m.5-.5H339.5v33H357v64.7h43.3V127.5h17.5v-33Z"/><polygon class="cls-5" points="362.5 187 362.5 121.9 345.9 121.9 345.9 100.7 411.4 100.7 411.4 121.9 394.7 121.9 394.7 187 362.5 187"/><path d="M411.2,101v20.7H394.5v65.1H362.8V121.6H346.1V101h65.1m.5-.5h-66v21.6h16.7v65.1H395V122.1h16.7V100.5Z"/><polygon class="cls-12" points="411.6 100.5 345.6 100.5 345.6 122.1 362.3 122.1 362.3 187.2 395 187.2 395 122.1 411.6 122.1 411.6 100.5"/><path class="cls-4" d="M182.9,225h2.8a20.3,20.3,0,0,1,15.1,6.3,20.6,20.6,0,0,1,6.2,14.9,19.9,19.9,0,0,1-6.4,14.8q-6.4,6.2-14.2,6.2h-.7v24.2h-2.8Zm2.8,39.8h.7a16.8,16.8,0,0,0,12.5-5.5,18.6,18.6,0,0,0-.1-26.1,16.8,16.8,0,0,0-12.4-5.6h-.7Z"/><path class="cls-4" d="M223.3,282.3a34.4,34.4,0,0,1-9.7-24.2,33.5,33.5,0,0,1,9.8-24,32.2,32.2,0,0,1,46.9,0A33.6,33.6,0,0,1,280,258a34.5,34.5,0,0,1-9.6,24.3q-9.6,10.3-23,10.3h-1.3Q232.9,292.6,223.3,282.3Zm53.9-24.1a31.4,31.4,0,0,0-8.9-22.4,29.3,29.3,0,0,0-42.9,0,32.7,32.7,0,0,0,0,44.9,29.2,29.2,0,0,0,42.9,0A31.5,31.5,0,0,0,277.2,258.2Z"/><path class="cls-4" d="M290.6,225h2.8v66.5h-2.8Z"/><path class="cls-4" d="M353.6,225H356v67.5l-47-60.2v59.2h-2.5V224l47,60.1Z"/><path class="cls-4" d="M396.2,225v2.6H381.6v63.9h-2.8V227.6H364.1V225Z"/><path class="cls-4" d="M259.1,0V2.6H244.5V66.5h-2.8V2.6H227V0Z"/><path class="cls-4" d="M313.7,0h2.8V66.5h-2.8V41.1H270V66.5h-2.8V0H270V38.6h43.7Z"/><path class="cls-4" d="M329.2,0h22.9V2.6H332V38.7h16.8v2.6H332V63.9h20.1v2.6H329.2Z"/><polyline class="cls-13" points="227.1 1.3 1.3 1.3 1.3 8.4 1.3 289.7 182.9 290.1"/><path class="cls-14" d="M386.7,289.9"/><polyline class="cls-13" points="381.6 290.2 581 290.2 581 276 581 1.3 352.1 1.3"/></g></g></svg>