<svg xmlns="http://www.w3.org/2000/svg" xmlns:xlink="http://www.w3.org/1999/xlink" viewBox="0 0 151.1 179.9"><defs><style>.cls-1{fill:none;}.cls-2{fill:#f0d0b4;}.cls-3{fill:#c97378;}.cls-4{fill:#917356;}.cls-5,.cls-6,.cls-7{fill:#0f0f0f;}.cls-5,.cls-7{stroke:#000;stroke-miterlimit:10;}.cls-5{stroke-width:4.08px;}.cls-7{stroke-width:5.19px;}.cls-8{clip-path:url(#clip-path);}.cls-9{fill:#0a3542;}.cls-10{fill:#ed1c24;}.cls-11{fill:#fff;}</style><clipPath id="clip-path"><path class="cls-1" d="M97.3,131.8a21.7,21.7,0,1,1-43.4,0c0-12,9.7-3.5,21.7-3.5S97.3,119.8,97.3,131.8Z"/></clipPath></defs><title>Tyler</title><g id="Layer_2" data-name="Layer 2"><g id="Avatars"><ellipse class="cls-2" cx="131.7" cy="77.3" rx="24" ry="19.4" transform="translate(53.4 208.4) rotate(-89.5)"/><ellipse class="cls-3" cx="131.7" cy="77.3" rx="10.8" ry="8.7" transform="translate(53.4 208.4) rotate(-89.5)"/><ellipse class="cls-2" cx="19.4" cy="77.3" rx="24" ry="19.4" transform="translate(-58 96.1) rotate(-89.5)"/><ellipse class="cls-3" cx="19.4" cy="77.3" rx="10.8" ry="8.7" transform="translate(-58 96.1) rotate(-89.5)"/><path class="cls-2" d="M83.1,166.4H68.2c-24.8,0-40.4-26.3-47.2-44.4a23.9,23.9,0,0,1-1.5-8.4V59.4A48.9,48.9,0,0,1,68.2,10.7H83.1a48.9,48.9,0,0,1,48.7,48.7V115a17.2,17.2,0,0,1-1,5.8C125.5,135.7,108,166.4,83.1,166.4Z"/><path class="cls-4" d="M19.8,56.1S30.9,27.2,43.2,20.7c0,0,26.7,6.3,69.1.1,0,0,19.2,26.1,19.3,34.5,0,0,5.9-36.7-28.8-50.6-27.3-11-54.4.6-54.4.6S15.2,17.4,19.8,56.1Z"/><circle class="cls-3" cx="66.9" cy="114" r="3.7"/><circle class="cls-3" cx="84.4" cy="114" r="3.7"/><path class="cls-5" d="M38.2,59.2H60a9.6,9.6,0,0,1,9.6,9.6v.6A21.5,21.5,0,0,1,48.2,90.9H40.5a12,12,0,0,1-12-12V68.9a9.6,9.6,0,0,1,9.6-9.6Z"/><line class="cls-6" x1="27.5" y1="67" x2="19.6" y2="53.1"/><polygon points="26.5 71.1 19.1 53.4 20.2 52.8 30.2 65.5 26.5 71.1"/><path class="cls-7" d="M68.6,64.6a34,34,0,0,1,7.5-1.7"/><path class="cls-5" d="M93.7,59.2h7.7a21.5,21.5,0,0,1,21.5,21.5v.6a9.6,9.6,0,0,1-9.6,9.6H91.4a9.6,9.6,0,0,1-9.6-9.6V71.2a12,12,0,0,1,12-12Z" transform="translate(204.6 150.2) rotate(-180)"/><line class="cls-6" x1="123.9" y1="67" x2="131.8" y2="53.1"/><polygon points="124.9 71.1 132.4 53.4 131.3 52.8 121.2 65.5 124.9 71.1"/><path class="cls-7" d="M82.8,64.6a31.3,31.3,0,0,0-7.3-1.7"/><g class="cls-8"><circle class="cls-9" cx="75.6" cy="131.8" r="21.7"/><circle class="cls-10" cx="75.6" cy="158.2" r="21.7"/><rect class="cls-11" x="27.4" y="83.5" width="96.5" height="48.27"/></g><polygon points="17.2 94.6 16.2 96.1 14.7 97.2 12.9 97.5 11.1 97.2 9.6 96.2 8.6 94.7 8.2 92.9 8.5 91.1 9.5 89.6 11 88.6 12.8 88.2 14.6 88.5 16.1 89.5 17.2 91 17.6 92.8 17.2 94.6"/><polygon points="142.7 94.6 141.7 96.1 140.2 97.2 138.4 97.5 136.6 97.2 135.1 96.2 134.1 94.7 133.7 92.9 134 91.1 135 89.6 136.5 88.6 138.3 88.2 140.1 88.5 141.6 89.5 142.7 91 143.1 92.8 142.7 94.6"/></g></g></svg>